<svg xmlns="http://www.w3.org/2000/svg" width="28" height="29" viewBox="0 0 28 29" fill="none">
  <path opacity="0.4" d="M1.45898 14.8261C1.45898 21.7527 7.07408 27.3678 14.0007 27.3678C20.9273 27.3678 26.5423 21.7527 26.5423 14.8261C26.5423 7.89952 20.9273 2.28442 14.0007 2.28442C7.07408 2.28442 1.45898 7.89952 1.45898 14.8261Z" fill="#1E21E9"/>
  <path d="M19.6898 10.1825C19.9989 10.7479 19.7913 11.4568 19.226 11.7659C17.626 12.6409 16.1236 14.4725 14.9763 16.2292C14.4171 17.0855 13.9684 17.8829 13.6598 18.4659C13.5058 18.7568 13.3875 18.9929 13.3086 19.1544L13.1939 19.394C13.0136 19.788 12.6298 20.05 12.1972 20.0739C11.7645 20.0977 11.3541 19.8798 11.1317 19.5079C10.7692 18.9018 10.1931 18.3485 9.65931 17.9266C9.39993 17.7215 9.16645 17.5598 8.99984 17.4507L8.7545 17.2973C8.1951 16.9778 8.00031 16.2656 8.31945 15.706C8.63867 15.1463 9.35117 14.9513 9.91087 15.2705L10.2784 15.4988C10.491 15.638 10.7825 15.8401 11.1065 16.0962C11.354 16.2919 11.6308 16.5273 11.9103 16.7984C12.2099 16.2601 12.5844 15.6246 13.0227 14.9533C14.2089 13.1372 15.973 10.8854 18.1065 9.71873C18.6717 9.40956 19.3806 9.61723 19.6898 10.1825Z" fill="#1E21E9"/>
</svg>