<svg xmlns="http://www.w3.org/2000/svg" width="32" height="32" viewBox="0 0 32 32" fill="none">
  <path opacity="0.4" d="M16.0689 3C19.1527 2.99999 21.5592 2.99997 23.4347 3.22691C25.3431 3.45784 26.8535 3.93812 28.0491 5.01407C29.2596 6.10359 29.8139 7.50329 30.0776 9.26863C30.3327 10.9763 30.3327 13.3257 30.3327 16.0833C30.3327 18.8411 30.3327 21.0237 30.0776 22.7313C29.8139 24.4967 29.2596 25.8964 28.0491 26.986C26.8535 28.0619 25.3431 28.5421 23.4347 28.7731C21.5592 29 19.1527 29 16.0689 29C12.9851 29 10.4395 29 8.56408 28.7731C6.65564 28.5421 5.14516 28.0619 3.94967 26.986C2.7391 25.8964 2.18478 24.4967 1.92107 22.7313C1.66598 21.0237 1.66599 18.8411 1.66602 16.0833C1.66599 13.3256 1.66598 10.9763 1.92107 9.26863C2.18478 7.50329 2.7391 6.10359 3.94967 5.01407C5.14516 3.93812 6.65564 3.45784 8.56408 3.22691C10.4395 2.99997 12.9851 2.99999 16.0689 3Z" fill="white"/>
  <path d="M11.2557 9.66602C11.7102 9.66595 12.1457 9.66587 12.5037 9.71401C12.905 9.76797 13.3551 9.89837 13.728 10.2713C14.1011 10.6443 14.2315 11.0943 14.2853 11.4957C14.3335 11.8537 14.3335 12.2892 14.3333 12.7437V13.9216C14.3335 14.3762 14.3335 14.8118 14.2853 15.1698C14.2315 15.5711 14.1011 16.0211 13.728 16.394C13.3551 16.7671 12.905 16.8975 12.5037 16.9514C12.1457 16.9995 11.7102 16.9995 11.2557 16.9994H10.0777C9.62318 16.9995 9.18769 16.9995 8.82969 16.9514C8.42833 16.8975 7.97831 16.7671 7.60532 16.394C7.23235 16.0211 7.10195 15.5711 7.04799 15.1698C6.99986 14.8118 6.99994 14.3762 7.00001 13.9216V12.7437C6.99994 12.2892 6.99986 11.8537 7.04799 11.4957C7.10195 11.0943 7.23235 10.6443 7.60532 10.2713C7.97831 9.89837 8.42833 9.76797 8.82969 9.71401C9.18769 9.66587 9.62318 9.66595 10.0777 9.66602H11.2557Z" fill="white"/>
  <path fill-rule="evenodd" clip-rule="evenodd" d="M7 21.334C7 20.7817 7.44772 20.334 8 20.334H13.3333C13.8856 20.334 14.3333 20.7817 14.3333 21.334C14.3333 21.8863 13.8856 22.334 13.3333 22.334H8C7.44772 22.334 7 21.8863 7 21.334Z" fill="white"/>
  <path fill-rule="evenodd" clip-rule="evenodd" d="M17.666 10.666C17.666 10.1137 18.1137 9.66602 18.666 9.66602H23.9993C24.5516 9.66602 24.9993 10.1137 24.9993 10.666C24.9993 11.2183 24.5516 11.666 23.9993 11.666H18.666C18.1137 11.666 17.666 11.2183 17.666 10.666Z" fill="white"/>
  <path fill-rule="evenodd" clip-rule="evenodd" d="M17.666 16C17.666 15.4477 18.1137 15 18.666 15H23.9993C24.5516 15 24.9993 15.4477 24.9993 16C24.9993 16.5523 24.5516 17 23.9993 17H18.666C18.1137 17 17.666 16.5523 17.666 16Z" fill="white"/>
  <path fill-rule="evenodd" clip-rule="evenodd" d="M17.666 21.334C17.666 20.7817 18.1137 20.334 18.666 20.334H23.9993C24.5516 20.334 24.9993 20.7817 24.9993 21.334C24.9993 21.8863 24.5516 22.334 23.9993 22.334H18.666C18.1137 22.334 17.666 21.8863 17.666 21.334Z" fill="white"/>
</svg>