<svg width="173" height="170" viewBox="0 0 173 170" fill="none" xmlns="http://www.w3.org/2000/svg">
<path d="M75.8156 3.80431C81.6963 1.36845 88.3037 1.36845 94.1844 3.8043L135.92 21.0916C141.8 23.5275 146.473 28.1997 148.908 34.0803L166.196 75.8156C168.632 81.6963 168.632 88.3037 166.196 94.1844L148.908 135.92C146.473 141.8 141.8 146.473 135.92 148.908L94.1844 166.196C88.3037 168.632 81.6963 168.632 75.8156 166.196L34.0803 148.908C28.1997 146.473 23.5275 141.8 21.0916 135.92L3.80431 94.1844C1.36845 88.3037 1.36845 81.6963 3.8043 75.8156L21.0916 34.0803C23.5275 28.1997 28.1997 23.5275 34.0803 21.0916L75.8156 3.80431Z" fill="#FCFAFF"/>
<path d="M78.8771 22.5362C82.7975 20.9123 87.2025 20.9123 91.1229 22.5362L124.839 36.5019C128.759 38.1258 131.874 41.2405 133.498 45.161L147.464 78.8771C149.088 82.7975 149.088 87.2025 147.464 91.1229L133.498 124.839C131.874 128.759 128.759 131.874 124.839 133.498L91.1229 147.464C87.2025 149.088 82.7975 149.088 78.8771 147.464L45.161 133.498C41.2405 131.874 38.1258 128.759 36.5019 124.839L22.5362 91.1229C20.9123 87.2025 20.9123 82.7975 22.5362 78.8771L36.5019 45.161C38.1258 41.2405 41.2405 38.1258 45.161 36.5019L78.8771 22.5362Z" fill="#F8F6FF"/>
<path d="M79.6424 52.2192C83.0728 50.7983 86.9272 50.7983 90.3576 52.2192L104.391 58.0321C107.822 59.453 110.547 62.1784 111.968 65.6088L117.781 79.6424C119.202 83.0728 119.202 86.9272 117.781 90.3576L111.968 104.391C110.547 107.822 107.822 110.547 104.391 111.968L90.3576 117.781C86.9272 119.202 83.0728 119.202 79.6424 117.781L65.6088 111.968C62.1784 110.547 59.453 107.822 58.0321 104.391L52.2192 90.3576C50.7983 86.9272 50.7983 83.0728 52.2192 79.6424L58.0321 65.6088C59.453 62.1784 62.1784 59.453 65.6088 58.0321L79.6424 52.2192Z" fill="#ECE7FF"/>
<g clip-path="url(#clip0_3063_13864)">
<path d="M88.3106 94.0823L90.7226 91.6661L91.3415 91.4996L93.3567 99.0203L90.0515 97.9698L87.7146 100.532L85.8066 93.4138L88.3106 94.0823Z" fill="#F07281"/>
<path d="M91.6645 92.7042L91.369 92.7834L88.6841 95.4726L86.1795 94.8036L85.8066 93.4138L88.3106 94.0821L90.7224 91.6661L91.3415 91.4996L91.6645 92.7042Z" fill="#FEE45A"/>
<path d="M88.4441 93.9488L89.6418 98.4186L87.7146 100.532L85.8066 93.4138L88.3106 94.0821L88.4441 93.9488Z" fill="#EB5569"/>
<path d="M79.2975 91.6759L81.7137 94.0879L84.194 93.4212L82.2886 100.532L79.9517 97.9697L76.6465 99.0203L78.6604 91.5058L79.2975 91.6759Z" fill="#F07281"/>
<path d="M84.1945 93.4212L83.8216 94.8122L81.3426 95.4794L78.6534 92.7946L78.3379 92.7104L78.6608 91.5058L79.2981 91.676L81.7141 94.0877L84.1945 93.4212Z" fill="#FEE45A"/>
<path d="M81.2187 93.5933L80.024 98.0495L79.9517 97.9697L76.6465 99.0203L78.6604 91.5058L79.2977 91.676L81.2187 93.5933Z" fill="#EB5569"/>
<path d="M91.6625 92.7042L91.367 92.7834L88.6822 95.4726L86.1775 94.8036L85.8047 93.4138L88.3087 94.0821L90.7204 91.6661L91.3396 91.4996L91.6625 92.7042Z" fill="#EB5569"/>
<path d="M84.1945 93.4212L83.8216 94.8122L81.3426 95.4794L78.6534 92.7946L78.3379 92.7104L78.6608 91.5058L79.2981 91.676L81.7141 94.0877L84.1945 93.4212Z" fill="#EB5569"/>
<path d="M94.0188 90.7797L90.7218 91.6662L88.3098 94.0823L85.0113 93.2015L81.7143 94.088L79.2982 91.6759L75.9997 90.7951L75.1132 87.4981L72.6971 85.0861L73.5778 81.7876L72.6914 78.4906L75.1035 76.0744L75.9843 72.7759L79.2813 71.8895L81.6933 69.4733L84.9918 70.3541L88.2888 69.4677L90.705 71.8797L94.0035 72.7605L94.8899 76.0575L97.306 78.4695L96.4253 81.768L97.3117 85.065L94.8997 87.4812L94.0188 90.7797Z" fill="#FDB441"/>
<path d="M85.0011 91.1304C90.1664 91.1304 94.3537 86.9431 94.3537 81.7778C94.3537 76.6125 90.1664 72.4252 85.0011 72.4252C79.8358 72.4252 75.6484 76.6125 75.6484 81.7778C75.6484 86.9431 79.8358 91.1304 85.0011 91.1304Z" fill="#FEE97D"/>
<path d="M87.1833 90.8742C86.4831 91.042 85.7524 91.1305 85.0011 91.1305C79.8359 91.1305 75.6484 86.943 75.6484 81.7779C75.6484 76.6127 79.8359 72.4252 85.0011 72.4252C85.7524 72.4252 86.4831 72.5138 87.1833 72.6815C83.0707 73.6641 80.013 77.364 80.013 81.7779C80.0129 86.1917 83.0706 89.8916 87.1833 90.8742V90.8742Z" fill="#FEE45A"/>
<path d="M81.5705 79.358V87.5977H77.6798C76.4079 86.0003 75.6484 83.9777 75.6484 81.7779C75.6484 80.9412 75.7582 80.13 75.9646 79.3581H81.5705V79.358Z" fill="#8AC9FE"/>
<path d="M81.5705 79.358V87.5977H77.6798C76.4079 86.0003 75.6484 83.9777 75.6484 81.7779C75.6484 80.9412 75.7582 80.13 75.9646 79.3581H81.5705V79.358Z" fill="#8AC9FE"/>
<path d="M88.7646 85.4255H89.2442C89.7739 85.4255 90.2034 85.8549 90.2034 86.3847C90.2034 86.9145 89.774 87.344 89.2442 87.344H84.0994C83.8403 87.344 83.5896 87.2562 83.3839 87.0986C82.8416 86.6827 82.2678 86.5947 81.5703 86.5532V80.4536C83.2106 78.5794 85.2893 78.4033 85.1439 75.6027C85.1187 75.1181 85.5049 74.7112 85.9902 74.7112C86.3614 74.7112 86.6914 74.9521 86.7997 75.3071C87.2399 76.7501 87.3501 78.1823 86.7688 79.6702H90.2768C90.8065 79.6702 91.236 80.0996 91.236 80.6294C91.236 81.1592 90.8066 81.5887 90.2768 81.5887H89.0834H89.9519C90.4817 81.5887 90.9112 82.0181 90.9112 82.5479C90.9112 83.0777 90.4818 83.5072 89.9519 83.5072H89.0834H89.6331C90.1628 83.5072 90.5923 83.9366 90.5923 84.4664C90.5923 84.9962 90.1629 85.4257 89.6331 85.4257H88.7646V85.4255Z" fill="#FFF3DE"/>
<path d="M88.7646 85.4255H89.2442C89.7739 85.4255 90.2034 85.8549 90.2034 86.3847C90.2034 86.9145 89.774 87.344 89.2442 87.344H84.0994C83.8403 87.344 83.5896 87.2562 83.3839 87.0986C82.8416 86.6827 82.2678 86.5947 81.5703 86.5532V80.4536C83.2106 78.5794 85.2893 78.4033 85.1439 75.6027C85.1187 75.1181 85.5049 74.7112 85.9902 74.7112C86.3614 74.7112 86.6914 74.9521 86.7997 75.3071C87.2399 76.7501 87.3501 78.1823 86.7688 79.6702H90.2768C90.8065 79.6702 91.236 80.0996 91.236 80.6294C91.236 81.1592 90.8066 81.5887 90.2768 81.5887H89.0834H89.9519C90.4817 81.5887 90.9112 82.0181 90.9112 82.5479C90.9112 83.0777 90.4818 83.5072 89.9519 83.5072H89.0834H89.6331C90.1628 83.5072 90.5923 83.9366 90.5923 84.4664C90.5923 84.9962 90.1629 85.4257 89.6331 85.4257H88.7646V85.4255Z" fill="#F1B0A2"/>
<path d="M87.1534 77.9676C86.515 78.7118 85.5451 79.1987 84.6461 80.08C84.421 80.3007 84.2924 80.6017 84.2924 80.9169V85.5199C84.2924 86.062 84.659 86.5417 85.1863 86.6677C85.6156 86.7702 86.0037 86.9618 86.3839 87.3439H84.0992C83.8402 87.3439 83.5895 87.2562 83.3839 87.0986C82.8416 86.6829 82.2677 86.5948 81.5703 86.5533V80.4537C83.2118 78.5782 85.2922 78.4032 85.1433 75.5967C85.1181 75.1145 85.5069 74.7112 85.9899 74.7112C86.1754 74.7112 86.3511 74.7714 86.4935 74.8761C86.6358 74.9807 86.7455 75.1292 86.7996 75.3069C87.0698 76.1928 87.2156 77.0744 87.1534 77.9676V77.9676Z" fill="#EB9C8D"/>
<path d="M97.7629 84.9433L96.9092 81.7678L97.7575 78.591C97.8007 78.4291 97.7543 78.2566 97.6358 78.1383L95.3084 75.8151L94.4548 72.6396C94.4113 72.4778 94.2848 72.3516 94.123 72.3084L90.9462 71.4602L88.6188 69.137C88.5003 69.0187 88.3276 68.9725 88.166 69.0161L84.9904 69.8697L81.8136 69.0215C81.652 68.9784 81.4793 69.0247 81.361 69.1433L79.0379 71.4706L75.8623 72.3243C75.7005 72.3677 75.5743 72.4942 75.5311 72.656L74.6828 75.8328L72.3597 78.1602C72.2413 78.2787 72.1953 78.4513 72.2387 78.6131L73.0924 81.7881L72.5667 83.7573C72.4999 84.0074 72.6485 84.2643 72.8987 84.3311C73.1488 84.3981 73.4057 84.2493 73.4725 83.9991L74.0307 81.9085C74.0519 81.829 74.0518 81.7453 74.0305 81.6659L73.2144 78.631L75.435 76.4063C75.4932 76.348 75.535 76.2755 75.5562 76.1961L76.3671 73.1593L79.4026 72.3433C79.482 72.322 79.5545 72.2801 79.6126 72.2218L81.8333 69.9972L84.8699 70.808C84.9493 70.8292 85.033 70.8291 85.1125 70.8078L88.1481 69.9918L90.3727 72.2125C90.431 72.2706 90.5035 72.3123 90.5829 72.3336L93.6196 73.1444L94.4356 76.1799C94.457 76.2593 94.4989 76.3318 94.5571 76.39L96.7819 78.6106L95.971 81.6473C95.9497 81.7268 95.9498 81.8104 95.9712 81.8899L96.7872 84.9254L94.5666 87.1502C94.5084 87.2084 94.4667 87.2809 94.4454 87.3604L93.6346 90.397L90.5992 91.2129C90.5197 91.2343 90.4471 91.2762 90.389 91.3345L88.1684 93.5592L85.132 92.7479C85.0523 92.7265 84.9686 92.7266 84.8889 92.748L81.8536 93.5646L79.6289 91.3439C79.5706 91.2858 79.4981 91.244 79.4186 91.2228L78.7834 91.0531C78.783 91.0529 78.7826 91.0527 78.7821 91.0527C78.7817 91.0526 78.7813 91.0525 78.7808 91.0524L76.3821 90.4114L75.566 87.3765C75.5446 87.297 75.5027 87.2246 75.4445 87.1664L73.8638 85.5889C73.6805 85.4061 73.3837 85.4064 73.201 85.5896C73.0181 85.7729 73.0184 86.0696 73.2017 86.2525L74.6933 87.7412L75.547 90.9161C75.5905 91.0778 75.7169 91.2041 75.8787 91.2472L78.0866 91.8372L76.1943 98.898C76.15 99.0634 76.1995 99.24 76.3233 99.3583C76.4472 99.4766 76.6258 99.518 76.7891 99.466L79.808 98.5064L81.9424 100.847C82.0323 100.946 82.1586 101 82.2888 101C82.3256 101 82.3629 100.996 82.3996 100.987C82.5661 100.946 82.6972 100.818 82.7415 100.652L84.5769 93.8027L85.0113 93.6859L85.4225 93.7957L87.2599 100.652C87.3043 100.818 87.4354 100.946 87.6019 100.987C87.6386 100.996 87.6758 101 87.7127 101C87.8428 101 87.9691 100.946 88.0591 100.847L90.1936 98.5063L93.2126 99.466C93.3759 99.518 93.5545 99.4766 93.6783 99.3583C93.8022 99.24 93.8517 99.0635 93.8073 98.898L93.0473 96.0617C92.9804 95.8117 92.7232 95.6634 92.4732 95.7303C92.2231 95.7973 92.0747 96.0544 92.1417 96.3044L92.6799 98.313L90.1916 97.522C90.0172 97.4665 89.8265 97.5176 89.7032 97.6529L87.9437 99.5823L86.4679 94.0752L88.1879 94.5347C88.3496 94.5779 88.5223 94.5316 88.6407 94.413L90.9637 92.0857L91.0082 92.0737L91.5943 94.2619C91.6504 94.4714 91.8398 94.6095 92.0467 94.6095C92.0869 94.6095 92.1277 94.6043 92.1683 94.5934C92.4184 94.5264 92.5668 94.2694 92.4998 94.0194L91.9134 91.8304L94.1393 91.2321C94.3011 91.1886 94.4272 91.0621 94.4705 90.9003L95.3187 87.7235L97.6419 85.3961C97.7603 85.2776 97.8064 85.105 97.7629 84.9433V84.9433ZM82.0578 99.5822L80.2985 97.6529C80.1751 97.5177 79.9845 97.4667 79.8101 97.522L77.3217 98.313L78.9924 92.0792L79.0556 92.096L81.3829 94.4192C81.472 94.508 81.5915 94.5562 81.7141 94.5562C81.7546 94.5562 81.7956 94.5509 81.8358 94.5401L83.5311 94.0841L82.0578 99.5822Z" fill="black"/>
<path d="M85.0002 72.895C86.3034 72.895 87.5585 73.1706 88.7306 73.714C88.9656 73.823 89.2441 73.7208 89.353 73.486C89.4619 73.2511 89.3598 72.9724 89.125 72.8635C87.8284 72.2623 86.4407 71.9575 85.0003 71.9575C80.5651 71.9575 76.6684 74.9423 75.5171 79.2182C75.5166 79.2196 75.5162 79.2211 75.5158 79.2226C75.5145 79.2275 75.5131 79.2323 75.5117 79.2371C75.2914 80.0619 75.1797 80.9168 75.1797 81.7781C75.1797 84.024 75.9174 86.1373 77.3129 87.8893C77.3138 87.8905 77.3148 87.8916 77.3157 87.8928C77.3171 87.8945 77.3184 87.8962 77.3199 87.8979C79.1953 90.25 81.9939 91.5988 85.0002 91.5988C90.4154 91.5988 94.8209 87.1933 94.8209 81.7781C94.8209 78.8485 93.5267 76.0935 91.2704 74.2194C91.0712 74.054 90.7757 74.0813 90.6102 74.2805C90.4448 74.4797 90.4722 74.7752 90.6714 74.9406C92.7126 76.636 93.8834 79.1282 93.8834 81.7782C93.8834 86.6764 89.8984 90.6613 85.0002 90.6613C82.62 90.6613 80.3836 89.7265 78.7249 88.0663H81.5699C81.8289 88.0663 82.0387 87.8565 82.0387 87.5976V87.0663C82.4602 87.1231 82.7863 87.2314 83.0982 87.4705C83.3859 87.6911 83.7413 87.8126 84.0987 87.8126H89.2432C90.0306 87.8126 90.6712 87.172 90.6712 86.3846C90.6712 86.1086 90.5924 85.8505 90.4562 85.6318C90.8214 85.3729 91.0601 84.947 91.0601 84.4663C91.0601 84.1753 90.9726 83.9044 90.8225 83.6784C91.1607 83.417 91.3789 83.0075 91.3789 82.548C91.3789 82.2583 91.2921 81.9885 91.1432 81.7631C91.4837 81.502 91.7036 81.091 91.7036 80.6297C91.7036 79.8423 91.0631 79.2018 90.2757 79.2018H87.4173C87.7589 77.9593 87.7018 76.6609 87.2472 75.171C87.0779 74.616 86.5725 74.2431 85.9894 74.2431C85.6302 74.2431 85.2824 74.3926 85.035 74.6531C84.7876 74.9136 84.6564 75.2689 84.675 75.6277C84.7608 77.2791 84.0271 77.8267 82.9163 78.6556C82.6373 78.8638 82.3389 79.0868 82.0379 79.343C82.0296 79.0914 81.8236 78.8898 81.5699 78.8898H76.5974C77.8182 75.3309 81.1893 72.895 85.0002 72.895ZM83.477 79.4068C84.632 78.5448 85.7231 77.7307 85.6112 75.579C85.6058 75.4743 85.6426 75.3746 85.7148 75.2985C85.787 75.2225 85.8845 75.1806 85.9894 75.1806C86.1546 75.1806 86.3031 75.2891 86.3504 75.4445C86.8187 76.9792 86.8126 78.2678 86.3313 79.5C86.275 79.6442 86.2936 79.807 86.3809 79.9348C86.4682 80.0627 86.6131 80.1392 86.7679 80.1392H90.2756C90.546 80.1392 90.766 80.3592 90.766 80.6296C90.766 80.9001 90.546 81.1201 90.2756 81.1201H89.0824C88.8234 81.1201 88.6136 81.33 88.6136 81.5888C88.6136 81.8477 88.8234 82.0576 89.0824 82.0576H89.9508C90.2212 82.0576 90.4412 82.2776 90.4412 82.548C90.4412 82.8184 90.2212 83.0384 89.9508 83.0384H89.0824C88.8234 83.0384 88.6136 83.2483 88.6136 83.5071C88.6136 83.766 88.8234 83.9759 89.0824 83.9759H89.6319C89.9024 83.9759 90.1224 84.1959 90.1224 84.4663C90.1224 84.7368 89.9024 84.9568 89.6319 84.9568H88.7634C88.5045 84.9568 88.2947 85.1666 88.2947 85.4255C88.2947 85.6844 88.5045 85.8943 88.7634 85.8943H89.2431C89.5135 85.8943 89.7335 86.1143 89.7335 86.3847C89.7335 86.6551 89.5135 86.8751 89.2431 86.8751H84.0986C83.9462 86.8751 83.7934 86.8223 83.6684 86.7265C83.1375 86.3194 82.581 86.1815 82.0385 86.1213V80.6342C82.5003 80.1362 82.9961 79.7658 83.477 79.4068V79.4068ZM81.1012 80.5615C81.1012 80.5619 81.1011 80.5623 81.1011 80.5626V86.6619C81.1011 86.6623 81.1012 86.6627 81.1012 86.6631V87.1287H77.9094C76.7362 85.5796 76.1171 83.7346 76.1171 81.7781C76.1171 81.119 76.1902 80.4645 76.3329 79.8271H81.1012V80.5615Z" fill="black"/>
</g>
<path d="M12.6583 30.8004C12.5454 32.5516 11.1343 34.6585 12.8276 36.1361C14.2952 37.3948 16.1297 36.4645 17.7949 36.5739C19.6294 36.7108 18.8392 38.3525 18.6134 39.5565C18.444 40.4595 18.3594 41.4445 18.7827 42.3202C19.4601 43.6883 21.2946 44.5639 22.6493 43.5788C23.496 42.9495 22.6493 41.5266 21.8026 42.156C20.4197 43.1684 20.1374 40.7331 20.2785 39.9943C20.4197 39.2008 20.7019 38.4073 20.7301 37.5864C20.7583 36.4371 20.1374 35.5342 19.0367 35.1511C17.682 34.6859 16.4684 35.2058 15.1137 35.1784C12.6583 35.1237 14.2952 32.2232 14.3799 30.8004C14.4364 29.7332 12.743 29.7332 12.6583 30.8004V30.8004Z" fill="#FF9C07"/>
<path d="M22.8288 32.4192C22.1458 33.8921 21.4901 35.6377 22.5829 37.1105C22.9928 37.656 23.5392 37.9833 24.1949 38.0924C24.6321 38.147 25.2059 37.9561 25.5884 38.1197C26.2168 38.3652 26.572 39.1016 26.2714 39.7562C25.8069 40.7108 27.2277 41.5291 27.6922 40.5745C28.2659 39.3471 28.0474 37.9288 26.9545 37.0287C26.3534 36.5377 25.8069 36.5377 25.0693 36.4559C23.0747 36.265 23.6212 34.6012 24.2496 33.2647C24.6867 32.3101 23.266 31.4646 22.8288 32.4192V32.4192Z" fill="#FF9C07"/>
<path d="M167.67 60.8508C167.501 58.8474 170.026 57.7187 171.092 59.6092C171.99 61.2458 170.222 62.6849 168.68 62.1488C167.67 61.782 167.221 63.4186 168.231 63.7854C171.344 64.9141 174.29 61.3587 172.41 58.537C170.391 55.5177 165.706 57.2954 166.015 60.8508C166.071 61.9231 167.754 61.9513 167.67 60.8508V60.8508Z" fill="#4AD7B5"/>
<path fill-rule="evenodd" clip-rule="evenodd" d="M58.7302 141.39L55.4603 140.229L52.5714 142L52.7619 138.806L50 136.832L53.3968 136.019L54.6032 133L56.5079 135.729L60 135.845L57.7778 138.313L58.7302 141.39Z" stroke="#6FC7FF" stroke-width="1.2"/>
<defs>
<clipPath id="clip0_3063_13864">
<rect width="32" height="32" fill="white" transform="translate(69 69)"/>
</clipPath>
</defs>
</svg>
