<svg xmlns="http://www.w3.org/2000/svg" width="40" height="44" viewBox="0 0 40 44" fill="none">
  <g clip-path="url(#clip0_1928_2746)">
    <path d="M39.4205 20.8337L21.4914 2.90462L19.7541 1.16733L6.25749 14.6639L0.0858165 20.8337C-0.222455 21.1436 -0.395508 21.5629 -0.395508 22C-0.395508 22.4371 -0.222455 22.8564 0.0858165 23.1662L12.4161 35.4966L19.7541 42.8327L33.2488 29.3361L33.459 29.1277L39.4205 23.1755C39.575 23.0222 39.6976 22.8398 39.7813 22.6388C39.8649 22.4379 39.908 22.2223 39.908 22.0046C39.908 21.787 39.8649 21.5714 39.7813 21.3705C39.6976 21.1695 39.575 20.9871 39.4205 20.8337ZM19.7541 28.1605L13.5936 22L19.7541 15.8395L25.9127 22L19.7541 28.1605Z" fill="#2684FF"/>
    <path d="M19.754 15.8395C17.8165 13.9025 16.7243 11.2774 16.7159 8.53773C16.7076 5.79805 17.7837 3.16639 19.7093 1.21756L6.22949 14.6918L13.5656 22.0279L19.754 15.8395Z" fill="url(#paint0_linear_1928_2746)"/>
    <path d="M25.9298 21.9832L19.7544 28.1605C21.6992 30.1058 22.7917 32.744 22.7917 35.4947C22.7917 38.2455 21.6992 40.8836 19.7544 42.8289L33.2714 29.3193L25.9298 21.9832Z" fill="url(#paint1_linear_1928_2746)"/>
  </g>
  <defs>
    <linearGradient id="paint0_linear_1928_2746" x1="18.651" y1="9.60643" x2="10.0482" y2="18.2073" gradientUnits="userSpaceOnUse">
      <stop offset="0.18" stop-color="#0052CC"/>
      <stop offset="1" stop-color="#2684FF"/>
    </linearGradient>
    <linearGradient id="paint1_linear_1928_2746" x1="20.93" y1="34.3192" x2="29.516" y2="25.735" gradientUnits="userSpaceOnUse">
      <stop offset="0.18" stop-color="#0052CC"/>
      <stop offset="1" stop-color="#2684FF"/>
    </linearGradient>
    <clipPath id="clip0_1928_2746">
      <rect width="39.8222" height="42.1667" fill="white" transform="translate(0.0859375 0.916656)"/>
    </clipPath>
  </defs>
</svg>