<svg xmlns="http://www.w3.org/2000/svg" width="49" height="31" viewBox="0 0 49 31" fill="none">
  <path d="M31.128 26.9651H17.877V3.22733H31.1282L31.128 26.9651Z" fill="#FF5F00"/>
  <path d="M18.718 15.096C18.718 10.2808 20.9798 5.99142 24.502 3.22714C21.8359 1.13164 18.5384 -0.00565551 15.1432 -0.000654967C6.77964 -0.000654967 0 6.75826 0 15.096C0 23.4338 6.77964 30.1927 15.1432 30.1927C18.5385 30.1978 21.8361 29.0605 24.5022 26.9649C20.9803 24.2011 18.718 19.9115 18.718 15.096Z" fill="#EB001B"/>
  <path d="M49.0054 15.0967C49.0054 23.4344 42.2258 30.1934 33.8622 30.1934C30.4666 30.1983 27.1686 29.061 24.502 26.9656C28.0251 24.2013 30.2869 19.9121 30.2869 15.0967C30.2869 10.2812 28.0251 5.99206 24.502 3.22779C27.1685 1.13235 30.4664 -0.004927 33.8619 -1.46705e-05C42.2255 -1.46705e-05 49.0052 6.7589 49.0052 15.0967" fill="#F79E1B"/>
</svg>