<svg xmlns="http://www.w3.org/2000/svg" width="57" height="19" viewBox="0 0 57 19" fill="none">
  <path d="M24.71 18.6833H20.059L22.9658 0.327984H27.6174L24.71 18.6833ZM16.1462 0.327984L11.712 12.9529L11.1873 10.2343L11.1878 10.2353L9.62281 1.98067C9.62281 1.98067 9.43358 0.327984 7.4165 0.327984H0.0860162L0 0.638783C0 0.638783 2.24168 1.11799 4.86517 2.7368L8.90601 18.6838H13.7521L21.1518 0.327984H16.1462V0.327984ZM52.7293 18.6833H57L53.2765 0.327493H49.5376C47.8111 0.327493 47.3906 1.6954 47.3906 1.6954L40.4538 18.6833H45.3023L46.2719 15.9568H52.1845L52.7293 18.6833ZM47.6113 12.1904L50.0552 5.32139L51.43 12.1904H47.6113ZM40.8175 4.74202L41.4813 0.800319C41.4813 0.800319 39.4331 0 37.298 0C34.9899 0 29.5088 1.03649 29.5088 6.07654C29.5088 10.8186 35.9418 10.8775 35.9418 13.3683C35.9418 15.8591 30.1716 15.4128 28.2673 13.8421L27.5758 17.9635C27.5758 17.9635 29.6526 19 32.8257 19C35.9996 19 40.7879 17.3115 40.7879 12.7158C40.7879 7.9433 34.297 7.49895 34.297 5.42401C34.2975 3.34858 38.8272 3.61519 40.8175 4.74202V4.74202Z" fill="#2566AF"/>
  <path d="M11.1878 10.2348L9.62279 1.9802C9.62279 1.9802 9.43355 0.327515 7.41648 0.327515H0.086016L0 0.638314C0 0.638314 3.52331 1.38855 6.90278 4.19949C10.1341 6.88621 11.1878 10.2348 11.1878 10.2348Z" fill="#E6A540"/>
</svg>