<svg xmlns="http://www.w3.org/2000/svg" width="17" height="16" viewBox="0 0 17 16" fill="none">
  <g clip-path="url(#clip0_134_2661)">
    <path d="M0.5 7.99994C0.5 8.97851 0.676031 9.91588 0.997594 10.7825L8.5 11.1304L16.0024 10.7826C16.324 9.91588 16.5 8.97851 16.5 7.99994C16.5 7.02138 16.324 6.08401 16.0024 5.21735L8.5 4.86951L0.997594 5.21732C0.676031 6.08401 0.5 7.02138 0.5 7.99994Z" fill="black"/>
    <path d="M8.50045 0C5.06073 0 2.12839 2.171 0.998047 5.21741H16.0029C14.8725 2.171 11.9402 0 8.50045 0Z" fill="#0052B4"/>
    <path d="M16.0029 10.7826H0.998047C2.12839 13.829 5.06073 16 8.50045 16C11.9402 16 14.8725 13.829 16.0029 10.7826Z" fill="#F0F0F0"/>
  </g>
  <defs>
    <clipPath id="clip0_134_2661">
      <rect width="16" height="16" fill="white" transform="translate(0.5)"/>
    </clipPath>
  </defs>
</svg>